<svg width="69" height="95" viewBox="0 0 69 95" fill="none" xmlns="http://www.w3.org/2000/svg">
<g id="Group 2233">
<path id="Union" fill-rule="evenodd" clip-rule="evenodd" d="M36.7289 0.956533C35.411 -0.318844 33.2743 -0.318844 31.9564 0.956532L4.91225 27.1283C3.59436 28.4037 3.59436 30.4715 4.91224 31.7468C6.45513 33.24 8.90484 33.1805 10.5521 31.8033C17.0085 26.4055 25.4222 23.1408 34.6239 23.1408C43.8296 23.1408 52.2467 26.4084 58.7043 31.8106C60.1853 33.0495 62.3855 33.0896 63.7731 31.7468C65.091 30.4715 65.091 28.4037 63.7731 27.1283L36.7289 0.956533ZM0 59.8556C0 40.888 15.3763 25.5117 34.3438 25.5117C53.3114 25.5117 68.6877 40.888 68.6877 59.8556C68.6877 78.8231 53.3114 94.1994 34.3438 94.1994C15.3763 94.1994 0 78.8231 0 59.8556Z" fill="url(#paint0_linear_659_27524)"/>
<g id="Group 2143">
<g id="Group 2142">
<path id="Line 1068" d="M40.666 40.8281L43.9099 38.7153" stroke="#AE1939" stroke-width="5" stroke-linecap="round"/>
<path id="Line 1069" d="M27.7617 40.8281L24.5179 38.7153" stroke="#AE1939" stroke-width="5" stroke-linecap="round"/>
</g>
<path id="Subtract" fill-rule="evenodd" clip-rule="evenodd" d="M40.427 55.0254C41.7601 55.0254 42.7123 53.7298 41.9991 52.6035C40.309 49.9346 37.33 48.1627 33.9372 48.1627C30.5445 48.1627 27.5655 49.9346 25.8754 52.6035C25.1622 53.7298 26.1144 55.0254 27.4475 55.0254L40.427 55.0254Z" fill="#B7183A"/>
</g>
</g>
<defs>
<linearGradient id="paint0_linear_659_27524" x1="20.6466" y1="18.0658" x2="48.3906" y2="91.6195" gradientUnits="userSpaceOnUse">
<stop stop-color="#F099A0"/>
<stop offset="1" stop-color="#F33E66"/>
</linearGradient>
</defs>
</svg>
