<svg width="58" height="78" viewBox="0 0 58 78" fill="none" xmlns="http://www.w3.org/2000/svg">
<rect width="58" height="78" fill="#E3E3E3"/>
<path d="M-4654 -36587C-4654 -36588.1 -4653.1 -36589 -4652 -36589H18566C18567.1 -36589 18568 -36588.1 18568 -36587V5585C18568 5586.11 18567.1 5587 18566 5587H-4652C-4653.1 5587 -4654 5586.11 -4654 5585V-36587Z" fill="#3A3A3A"/>
<g clip-path="url(#clip0_0_1)">
<rect width="1920" height="2362" transform="translate(-757 -870)" fill="white"/>
<path fill-rule="evenodd" clip-rule="evenodd" d="M31.1951 0.789597C30.1072 -0.263199 28.3434 -0.263199 27.2555 0.789597L4.93115 22.3938C3.84326 23.4466 3.84326 25.1536 4.93115 26.2063C6.20477 27.4389 8.22696 27.3898 9.58671 26.253C14.9164 21.7972 21.8617 19.1022 29.4575 19.1022C37.0566 19.1022 44.0048 21.7996 49.3354 26.2589C50.5579 27.2817 52.3741 27.3148 53.5195 26.2063C54.6074 25.1536 54.6074 23.4466 53.5195 22.3938L31.1951 0.789597ZM0.876953 49.4126C0.876953 33.7553 13.5697 21.0625 29.2271 21.0625C44.8844 21.0625 57.5772 33.7553 57.5772 49.4126C57.5772 65.0699 44.8844 77.7627 29.2271 77.7627C13.5697 77.7627 0.876953 65.0699 0.876953 49.4126Z" fill="#E3E9F6"/>
<path fill-rule="evenodd" clip-rule="evenodd" d="M24.4253 52.3984C23.0923 52.3984 22.1444 53.7006 22.9225 54.783C24.3512 56.7705 26.6835 58.0649 29.3181 58.0649C31.9527 58.0649 34.285 56.7705 35.7137 54.783C36.4918 53.7006 35.5439 52.3984 34.2109 52.3984H24.4253Z" fill="#959AA4"/>
<circle cx="21.7494" cy="45.3725" r="2.23187" fill="#959AA4"/>
<circle cx="36.8666" cy="45.3725" r="2.23187" fill="#959AA4"/>
</g>
<path d="M-4652 -36588H18566V-36590H-4652V-36588ZM18567 -36587V5585H18569V-36587H18567ZM18566 5586H-4652V5588H18566V5586ZM-4653 5585V-36587H-4655V5585H-4653ZM-4652 5586C-4652.55 5586 -4653 5585.55 -4653 5585H-4655C-4655 5586.66 -4653.66 5588 -4652 5588V5586ZM18567 5585C18567 5585.55 18566.6 5586 18566 5586V5588C18567.7 5588 18569 5586.66 18569 5585H18567ZM18566 -36588C18566.6 -36588 18567 -36587.6 18567 -36587H18569C18569 -36588.7 18567.7 -36590 18566 -36590V-36588ZM-4652 -36590C-4653.66 -36590 -4655 -36588.7 -4655 -36587H-4653C-4653 -36587.6 -4652.55 -36588 -4652 -36588V-36590Z" fill="black" fill-opacity="0.1"/>
<rect x="-8640" y="-38916" width="51691" height="54051" stroke="#1657B9" stroke-width="1000"/>
<rect x="-5891" y="-10511" width="47620" height="24132" stroke="#24FF00" stroke-width="700"/>
<defs>
<clipPath id="clip0_0_1">
<rect width="1920" height="2362" fill="white" transform="translate(-757 -870)"/>
</clipPath>
</defs>
</svg>
