<svg width="69" height="95" viewBox="0 0 69 95" fill="none" xmlns="http://www.w3.org/2000/svg">
<g id="Group 2235">
<path id="Union" fill-rule="evenodd" clip-rule="evenodd" d="M36.7289 0.956533C35.411 -0.318844 33.2743 -0.318844 31.9564 0.956532L4.91225 27.1283C3.59436 28.4037 3.59436 30.4715 4.91224 31.7468C6.45513 33.24 8.90484 33.1805 10.5521 31.8033C17.0085 26.4055 25.4222 23.1408 34.6239 23.1408C43.8296 23.1408 52.2467 26.4084 58.7043 31.8106C60.1853 33.0495 62.3855 33.0896 63.7731 31.7468C65.091 30.4715 65.091 28.4037 63.7731 27.1283L36.7289 0.956533ZM0 59.8556C0 40.888 15.3763 25.5117 34.3438 25.5117C53.3114 25.5117 68.6877 40.888 68.6877 59.8556C68.6877 78.8231 53.3114 94.1994 34.3438 94.1994C15.3763 94.1994 0 78.8231 0 59.8556Z" fill="url(#paint0_linear_659_27556)"/>
<g id="Group 2138">
<path id="Ellipse 129 (Stroke)" fill-rule="evenodd" clip-rule="evenodd" d="M37.3472 65.532C37.9836 65.2684 38.5842 64.9293 39.1367 64.523C39.7108 64.1008 40.5231 64.0914 41.027 64.5954C41.5309 65.0993 41.535 65.9232 40.9761 66.3653C40.1731 67.0005 39.2845 67.523 38.3348 67.9164C36.9868 68.4747 35.542 68.7621 34.0828 68.7621C32.6237 68.7621 31.1789 68.4747 29.8309 67.9164C28.8812 67.523 27.9926 67.0005 27.1896 66.3653C26.6306 65.9232 26.6348 65.0993 27.1387 64.5954C27.6426 64.0914 28.4549 64.1008 29.029 64.523C29.5814 64.9293 30.1821 65.2684 30.8185 65.532C31.8534 65.9607 32.9627 66.1813 34.0828 66.1813C35.203 66.1813 36.3123 65.9607 37.3472 65.532Z" fill="#546C00"/>
<g id="Group 2134">
<circle id="Ellipse 131" cx="25.2858" cy="54.9654" r="2.70373" fill="#546C00"/>
<circle id="Ellipse 132" cx="43.5983" cy="54.9654" r="2.70373" fill="#546C00"/>
</g>
</g>
</g>
<defs>
<linearGradient id="paint0_linear_659_27556" x1="20.6466" y1="18.0658" x2="48.3906" y2="91.6195" gradientUnits="userSpaceOnUse">
<stop stop-color="#E8F276"/>
<stop offset="1" stop-color="#B1CE57"/>
</linearGradient>
</defs>
</svg>
