<svg width="69" height="95" viewBox="0 0 69 95" fill="none" xmlns="http://www.w3.org/2000/svg">
<g id="Group 2232">
<path id="Union" fill-rule="evenodd" clip-rule="evenodd" d="M36.7289 0.956533C35.411 -0.318844 33.2743 -0.318844 31.9564 0.956532L4.91225 27.1283C3.59436 28.4037 3.59436 30.4715 4.91224 31.7468C6.45513 33.24 8.90484 33.1805 10.5521 31.8033C17.0085 26.4055 25.4222 23.1408 34.6239 23.1408C43.8296 23.1408 52.2467 26.4084 58.7043 31.8106C60.1853 33.0495 62.3855 33.0896 63.7731 31.7468C65.091 30.4715 65.091 28.4037 63.7731 27.1283L36.7289 0.956533ZM0 59.8556C0 40.888 15.3763 25.5117 34.3438 25.5117C53.3114 25.5117 68.6877 40.888 68.6877 59.8556C68.6877 78.8231 53.3114 94.1994 34.3438 94.1994C15.3763 94.1994 0 78.8231 0 59.8556Z" fill="url(#paint0_linear_659_27510)"/>
<g id="Group 2141">
<g id="Group 2140">
<path id="Line 1065" d="M10.3223 61.2969H14.1935" stroke="#BA2A29" stroke-width="5" stroke-linecap="round"/>
<path id="Line 1066" d="M27.0977 61.2969H30.9689" stroke="#BA2A29" stroke-width="5" stroke-linecap="round"/>
</g>
<path id="Ellipse 129 (Stroke)" fill-rule="evenodd" clip-rule="evenodd" d="M17.4966 70.6477C16.8602 70.9113 16.2595 71.2504 15.7071 71.6567C15.133 72.0789 14.3207 72.0883 13.8168 71.5843C13.3128 71.0804 13.3087 70.2565 13.8676 69.8144C14.6706 69.1792 15.5592 68.6567 16.5089 68.2633C17.857 67.705 19.3018 67.4176 20.7609 67.4176C22.22 67.4176 23.6648 67.705 25.0129 68.2633C25.9626 68.6567 26.8512 69.1792 27.6542 69.8144C28.2131 70.2565 28.209 71.0804 27.705 71.5843C27.2011 72.0883 26.3888 72.0789 25.8147 71.6567C25.2623 71.2504 24.6616 70.9113 24.0252 70.6477C22.9903 70.219 21.8811 69.9984 20.7609 69.9984C19.6407 69.9984 18.5315 70.219 17.4966 70.6477Z" fill="#BA2A29"/>
</g>
</g>
<defs>
<linearGradient id="paint0_linear_659_27510" x1="20.6466" y1="18.0658" x2="48.3906" y2="91.6195" gradientUnits="userSpaceOnUse">
<stop stop-color="#F8B597"/>
<stop offset="1" stop-color="#FE6769"/>
</linearGradient>
</defs>
</svg>
