<svg width="84" height="80" viewBox="0 0 84 80" fill="none" xmlns="http://www.w3.org/2000/svg">
<g id="Group 2304">
<rect id="Rectangle 1274" width="84" height="80" rx="10" fill="#F2F6FF"/>
<path id="Vector" d="M39.35 46.95H43.65V51.25H39.35V46.95ZM39.35 29.75H43.65V42.65H39.35V29.75ZM41.4785 19C29.6105 19 20 28.632 20 40.5C20 52.368 29.6105 62 41.4785 62C53.368 62 63 52.368 63 40.5C63 28.632 53.368 19 41.4785 19ZM41.5 57.7C31.997 57.7 24.3 50.003 24.3 40.5C24.3 30.997 31.997 23.3 41.5 23.3C51.003 23.3 58.7 30.997 58.7 40.5C58.7 50.003 51.003 57.7 41.5 57.7Z" fill="#17181A"/>
</g>
</svg>
