<svg width="80" height="80" viewBox="0 0 80 80" fill="none" xmlns="http://www.w3.org/2000/svg">
<g id="Group 2238">
<rect id="Rectangle 1256" width="80" height="80" rx="20" fill="white"/>
<g id="Group 2232">
<path id="Union" fill-rule="evenodd" clip-rule="evenodd" d="M42.1236 6.68033C41.1863 5.77322 39.6665 5.77322 38.7292 6.68033L19.494 25.295C18.5567 26.2021 18.5567 27.6728 19.494 28.5799C20.5914 29.6419 22.3338 29.5996 23.5054 28.6201C28.0975 24.7809 34.0818 22.4589 40.6264 22.4589C47.174 22.4589 53.1607 24.783 57.7536 28.6253C58.807 29.5065 60.3719 29.535 61.3588 28.5799C62.2961 27.6728 62.2961 26.2021 61.3588 25.295L42.1236 6.68033ZM16 48.5716C16 35.0809 26.9364 24.1445 40.4271 24.1445C53.9177 24.1445 64.8541 35.0809 64.8541 48.5716C64.8541 62.0623 53.9177 72.9986 40.4271 72.9986C26.9364 72.9986 16 62.0623 16 48.5716Z" fill="url(#paint0_linear_841_8109)"/>
<g id="Group 2141">
<g id="Group 2140">
<path id="Line 1065" d="M23.3457 49.5977H26.0991" stroke="#BA2A29" stroke-width="3" stroke-linecap="round"/>
<path id="Line 1066" d="M35.2773 49.5977H38.0308" stroke="#BA2A29" stroke-width="3" stroke-linecap="round"/>
</g>
<path id="Ellipse 129 (Stroke)" fill-rule="evenodd" clip-rule="evenodd" d="M28.4479 56.2445C27.9952 56.432 27.568 56.6732 27.1751 56.9622C26.7668 57.2625 26.1891 57.2691 25.8306 56.9107C25.4722 56.5523 25.4693 55.9663 25.8668 55.6518C26.4379 55.2 27.07 54.8284 27.7454 54.5486C28.7042 54.1515 29.7319 53.9471 30.7697 53.9471C31.8074 53.9471 32.8351 54.1515 33.7939 54.5486C34.4694 54.8284 35.1014 55.2 35.6725 55.6518C36.07 55.9663 36.0671 56.5523 35.7087 56.9107C35.3502 57.2691 34.7725 57.2625 34.3642 56.9622C33.9713 56.6732 33.5441 56.432 33.0914 56.2445C32.3553 55.9396 31.5664 55.7827 30.7697 55.7827C29.9729 55.7827 29.184 55.9396 28.4479 56.2445Z" fill="#BA2A29"/>
</g>
</g>
</g>
<defs>
<linearGradient id="paint0_linear_841_8109" x1="30.6849" y1="18.8492" x2="50.4175" y2="71.1638" gradientUnits="userSpaceOnUse">
<stop stop-color="#F8B597"/>
<stop offset="1" stop-color="#FE6769"/>
</linearGradient>
</defs>
</svg>
