<svg width="69" height="95" viewBox="0 0 69 95" fill="none" xmlns="http://www.w3.org/2000/svg">
<g id="Group 2234">
<path id="Union" fill-rule="evenodd" clip-rule="evenodd" d="M36.7289 0.956533C35.411 -0.318844 33.2743 -0.318844 31.9564 0.956532L4.91225 27.1283C3.59436 28.4037 3.59436 30.4715 4.91224 31.7468C6.45513 33.24 8.90484 33.1805 10.5521 31.8033C17.0085 26.4055 25.4222 23.1408 34.6239 23.1408C43.8296 23.1408 52.2467 26.4084 58.7043 31.8106C60.1853 33.0495 62.3855 33.0896 63.7731 31.7468C65.091 30.4715 65.091 28.4037 63.7731 27.1283L36.7289 0.956533ZM0 59.8556C0 40.888 15.3763 25.5117 34.3438 25.5117C53.3114 25.5117 68.6877 40.888 68.6877 59.8556C68.6877 78.8231 53.3114 94.1994 34.3438 94.1994C15.3763 94.1994 0 78.8231 0 59.8556Z" fill="url(#paint0_linear_659_27540)"/>
<g id="Group 2137">
<path id="Subtract" fill-rule="evenodd" clip-rule="evenodd" d="M27.9636 63.4785C26.6305 63.4785 25.6783 64.7741 26.3915 65.9004C28.0817 68.5693 31.0606 70.3412 34.4534 70.3412C37.8462 70.3412 40.8251 68.5693 42.5152 65.9004C43.2285 64.7741 42.2763 63.4785 40.9431 63.4785H27.9636Z" fill="#006676"/>
<g id="Group 2133">
<circle id="Ellipse 131" cx="25.2858" cy="54.9654" r="2.70373" fill="#006676"/>
<circle id="Ellipse 132" cx="43.5983" cy="54.9654" r="2.70373" fill="#006676"/>
</g>
</g>
</g>
<defs>
<linearGradient id="paint0_linear_659_27540" x1="20.6466" y1="18.0658" x2="48.3906" y2="91.6195" gradientUnits="userSpaceOnUse">
<stop stop-color="#BCEFEC"/>
<stop offset="1" stop-color="#56C3D8"/>
</linearGradient>
</defs>
</svg>
