<svg width="187" height="58" viewBox="0 0 187 58" fill="none" xmlns="http://www.w3.org/2000/svg">
<g filter="url(#filter0_d_652_6771)">
<rect x="4" width="179" height="50" rx="25" fill="#FF003A"/>
<path d="M65.8672 18.0938V20.0273H63.1328C63.1328 21.8047 64.1484 23.543 66.3945 24.3047L65.2812 26.1406C63.709 25.6133 62.6445 24.6172 62.0098 23.3574C61.3945 24.7734 60.3203 25.9258 58.6992 26.5508L57.5078 24.7344C59.7734 23.8457 60.75 21.9316 60.7695 20.0273H58.0156V18.0938H60.7695V16.3359H63.1328V18.0938H65.8672ZM60.5742 30.5156C60.5645 28.4062 62.9375 27.1562 66.7266 27.1562C70.4961 27.1562 72.8789 28.4062 72.8984 30.5156C72.8789 32.5762 70.4961 33.8066 66.7266 33.7969C62.9375 33.8066 60.5645 32.5762 60.5742 30.5156ZM63.0742 30.5156C63.0547 31.4336 64.3926 31.9023 66.7266 31.9023C69.041 31.9023 70.3789 31.4336 70.3789 30.5156C70.3789 29.5488 69.041 29.0508 66.7266 29.0508C64.3926 29.0508 63.0547 29.5488 63.0742 30.5156ZM66.668 26.4336V16.3555H69.0117V20.3594H70.4375V16.043H72.8008V27H70.4375V22.3516H69.0117V26.4336H66.668ZM83.9141 17.8789C83.9141 18.8066 83.8555 19.7148 83.7188 20.5938H87.3125V16.0039H89.793V33.7969H87.3125V27.4102H83.0156V25.418H87.3125V22.5664H83.2793C82.3027 25.8574 80.0762 28.6699 75.9062 30.7305L74.6172 28.7578C78.875 26.5898 80.9648 23.7676 81.375 19.832H75.4766V17.8789H83.9141ZM107.078 27.3516V33.8164H104.598V29.3242H94.8711V27.3516H107.078ZM92.8398 25.5742V17.293H101.277V20.2812H104.598V16.0234H107.078V26.5312H104.598V22.2734H101.277V25.5742H92.8398ZM95.3203 23.6016H98.8359V19.3047H95.3203V23.6016ZM116.082 27.3711C116.072 28.8262 116.668 30.3203 118.123 31.3262C119.588 30.252 120.184 28.6895 120.203 27.3711V26.6484H122.645V27.3711C122.654 29.2266 123.621 30.9844 126.043 31.7266L124.773 33.5625C123.084 32.9766 121.99 31.873 121.375 30.4961C120.789 31.8633 119.744 33.0742 118.133 33.7188C116.502 33.1133 115.457 31.9512 114.871 30.5645C114.236 31.8926 113.143 32.9668 111.531 33.5625L110.32 31.7266C112.664 30.9453 113.65 29.1387 113.66 27.3711V26.6484H116.082V27.3711ZM109.598 21.1797C109.598 18.7285 111.629 16.9219 114.344 16.9414C116.59 16.9219 118.416 18.2305 118.904 20.1445H121.883V16.0234H124.363V25.9844H121.883V22.1758H118.914C118.445 24.1387 116.609 25.4668 114.344 25.457C111.629 25.4668 109.598 23.6797 109.598 21.1797ZM112 21.1797C111.98 22.5371 112.977 23.3965 114.344 23.3867C115.672 23.3965 116.658 22.5371 116.668 21.1797C116.658 19.8223 115.672 19.002 114.344 19.0117C112.977 19.002 111.98 19.8223 112 21.1797ZM131.57 17.2734C133.973 17.2734 135.77 19.2461 136.121 22.4492H139.207V16.0234H141.668V33.8359H139.207V24.4414H136.15C135.887 27.8594 134.051 29.9492 131.57 29.9492C128.875 29.9492 126.941 27.5078 126.961 23.6016C126.941 19.7246 128.875 17.2734 131.57 17.2734ZM129.344 23.6016C129.334 26.248 130.242 27.6934 131.57 27.6836C132.908 27.6934 133.797 26.248 133.797 23.6016C133.797 20.9648 132.908 19.5195 131.57 19.5195C130.242 19.5195 129.334 20.9648 129.344 23.6016ZM160.223 29.6758V31.7266H143.953V29.6758H147.586V25.3203C146.209 24.4902 145.379 23.2305 145.379 21.668C145.379 18.7871 148.191 16.8926 152.059 16.8828C155.906 16.8926 158.748 18.7871 158.758 21.668C158.748 23.2012 157.947 24.4414 156.609 25.2715V29.6758H160.223ZM147.84 21.668C147.84 23.4062 149.51 24.4805 152.059 24.4805C154.568 24.4805 156.287 23.4062 156.297 21.668C156.287 19.8809 154.568 18.8457 152.059 18.8555C149.51 18.8457 147.84 19.8809 147.84 21.668ZM150.047 29.6758H154.09V26.2188C153.455 26.3457 152.771 26.4141 152.059 26.4141C151.346 26.4141 150.672 26.3457 150.047 26.2285V29.6758Z" fill="#F2F6FF"/>
<g clip-path="url(#clip0_652_6771)">
<path d="M35.5021 28.9018L30.6021 24.0018L28.9688 25.6352L35.5021 32.1685L49.5021 18.1685L47.8687 16.5352L35.5021 28.9018Z" fill="#F2F6FF"/>
</g>
</g>
<defs>
<filter id="filter0_d_652_6771" x="0" y="0" width="187" height="58" filterUnits="userSpaceOnUse" color-interpolation-filters="sRGB">
<feFlood flood-opacity="0" result="BackgroundImageFix"/>
<feColorMatrix in="SourceAlpha" type="matrix" values="0 0 0 0 0 0 0 0 0 0 0 0 0 0 0 0 0 0 127 0" result="hardAlpha"/>
<feOffset dy="4"/>
<feGaussianBlur stdDeviation="2"/>
<feComposite in2="hardAlpha" operator="out"/>
<feColorMatrix type="matrix" values="0 0 0 0 0 0 0 0 0 0 0 0 0 0 0 0 0 0 0.25 0"/>
<feBlend mode="normal" in2="BackgroundImageFix" result="effect1_dropShadow_652_6771"/>
<feBlend mode="normal" in="SourceGraphic" in2="effect1_dropShadow_652_6771" result="shape"/>
</filter>
<clipPath id="clip0_652_6771">
<rect width="28" height="28" fill="white" transform="translate(25 10)"/>
<svg width="179" height="50" viewBox="0 0 179 50" fill="none" xmlns="http://www.w3.org/2000/svg">
<rect width="179" height="50" rx="25" fill="#FF003A"/>
<path d="M67.3516 17.5664C69.9102 17.5762 71.7266 19.9297 71.7461 23.6211C71.7266 27.3223 69.9102 29.666 67.3516 29.6562C64.7734 29.666 62.9668 27.3223 62.9766 23.6211C62.9668 19.9297 64.7734 17.5762 67.3516 17.5664ZM64.4219 23.6211C64.4316 26.4434 65.6328 28.2988 67.3516 28.2891C69.0898 28.2988 70.2617 26.4434 70.2617 23.6211C70.2617 20.7988 69.0898 18.9434 67.3516 18.9336C65.6328 18.9434 64.4316 20.7988 64.4219 23.6211ZM74.6172 33.582V16.2188H76.1406V23.1523H79.0508V24.4805H76.1406V33.582H74.6172ZM86.2383 19.4414C86.248 21.7754 88.0938 23.9043 90.6914 24.7539L89.9102 25.9453C87.8887 25.2617 86.2871 23.8359 85.4961 22C84.7344 23.9727 83.1133 25.5352 81.043 26.2773L80.2422 25.0859C82.8496 24.168 84.6855 21.9023 84.6953 19.4414V18.6992H80.6328V17.4492H90.2422V18.6992H86.2383V19.4414ZM82.6445 28.9141V27.6445H94.3242V33.582H92.8008V28.9141H82.6445ZM92.8008 26.7266V16.2188H94.3242V26.7266H92.8008ZM111.59 16.2188V33.6211H110.047V16.2188H111.59ZM97.918 23.6211C97.9277 19.9297 99.7637 17.5762 102.352 17.5664C104.93 17.5762 106.795 19.9297 106.785 23.6211C106.795 27.3223 104.93 29.666 102.352 29.6562C99.7637 29.666 97.9277 27.3223 97.918 23.6211ZM99.4023 23.6211C99.4023 26.4434 100.613 28.2988 102.352 28.2891C104.1 28.2988 105.301 26.4434 105.301 23.6211C105.301 20.7988 104.1 18.9434 102.352 18.9336C100.613 18.9434 99.4023 20.7988 99.4023 23.6211ZM129.441 16.2188V33.582H127.957V16.2188H129.441ZM114.773 23.7188C114.783 20.0273 116.248 17.6934 118.504 17.6836C120.613 17.6934 122.039 19.7246 122.234 22.9961H124.48V16.5898H125.945V32.7031H124.48V24.2656H122.244C122.098 27.6445 120.643 29.7637 118.504 29.7539C116.248 29.7637 114.783 27.4102 114.773 23.7188ZM116.219 23.7188C116.199 26.5312 117.098 28.3086 118.504 28.2891C119.92 28.3086 120.818 26.5312 120.809 23.7188C120.818 20.8965 119.92 19.1289 118.504 19.1289C117.098 19.1289 116.199 20.8965 116.219 23.7188ZM147.742 30.0664V31.3555H131.844V30.0664H135.789V25.3887C134.305 24.6172 133.406 23.3672 133.406 21.7852C133.406 19.0996 136.043 17.332 139.754 17.3125C143.465 17.332 146.102 19.0996 146.102 21.7852C146.102 23.3379 145.232 24.5684 143.797 25.3398V30.0664H147.742ZM134.891 21.7852C134.881 23.7285 136.902 25.0273 139.754 25.0273C142.576 25.0273 144.617 23.7285 144.617 21.7852C144.617 19.8418 142.576 18.5625 139.754 18.582C136.902 18.5625 134.881 19.8418 134.891 21.7852ZM137.293 30.0664H142.254V25.9355C141.502 26.1309 140.662 26.2383 139.754 26.2383C138.865 26.2383 138.035 26.1406 137.293 25.9453V30.0664Z" fill="#F2F6FF"/>
<g clip-path="url(#clip0_841_9022)">
<path d="M40.5001 28.9018L35.6001 24.0018L33.9668 25.6352L40.5001 32.1685L54.5001 18.1685L52.8668 16.5352L40.5001 28.9018Z" fill="#F2F6FF"/>
</g>
<defs>
<clipPath id="clip0_841_9022">
<rect width="28" height="28" fill="white" transform="translate(30 10)"/>
</clipPath>
</defs>
</svg>
