<svg width="179" height="50" viewBox="0 0 179 50" fill="none" xmlns="http://www.w3.org/2000/svg">
<rect width="179" height="50" rx="25" fill="#959AA4"/>
<path d="M67.3125 17.2734C70.0273 17.2734 71.9902 19.7246 72 23.6016C71.9902 27.5078 70.0273 29.9492 67.3125 29.9492C64.5879 29.9492 62.6152 27.5078 62.625 23.6016C62.6152 19.7246 64.5879 17.2734 67.3125 17.2734ZM65.0273 23.6016C65.0273 26.248 65.9551 27.6934 67.3125 27.6836C68.6992 27.6934 69.6074 26.248 69.6172 23.6016C69.6074 20.9648 68.6992 19.5195 67.3125 19.5195C65.9551 19.5195 65.0273 20.9648 65.0273 23.6016ZM74.0508 33.7969V16.0234H76.5508V22.7227H79.168V24.793H76.5508V33.7969H74.0508ZM94.6953 16.0234V26.7266H92.1953V16.0234H94.6953ZM79.8906 24.5195C82.8301 23.5723 84.1875 21.2676 84.207 19.0508H80.5547V17.0586H90.3203V19.0508H86.7461C86.7559 21.1406 88.084 23.3086 90.9844 24.1875L89.7148 26.1211C87.7227 25.4961 86.3262 24.2168 85.5254 22.6055C84.7148 24.3633 83.2695 25.7598 81.1797 26.4531L79.8906 24.5195ZM82.4688 29.5V27.5078H94.6953V33.7969H92.1953V29.5H82.4688ZM111.98 16.0234V33.8359H109.461V16.0234H111.98ZM97.625 23.6016C97.6152 19.7246 99.5977 17.2734 102.332 17.2734C105.008 17.2734 107 19.7246 107 23.6016C107 27.5078 105.008 29.9492 102.332 29.9492C99.5977 29.9492 97.6152 27.5078 97.625 23.6016ZM100.027 23.6016C100.018 26.248 100.945 27.6934 102.332 27.6836C103.68 27.6934 104.588 26.248 104.598 23.6016C104.588 20.9648 103.68 19.5195 102.332 19.5195C100.945 19.5195 100.018 20.9648 100.027 23.6016ZM129.793 16.0234V33.7969H127.41V16.0234H129.793ZM114.539 23.7188C114.539 19.7441 116.053 17.2832 118.406 17.293C120.545 17.2832 122.01 19.2852 122.283 22.6055H123.738V16.2773H126.082V32.9766H123.738V24.5781H122.303C122.088 28.0645 120.594 30.1836 118.406 30.1836C116.053 30.1836 114.539 27.7129 114.539 23.7188ZM116.844 23.7188C116.824 26.4531 117.41 27.8008 118.406 27.7812C119.432 27.8008 120.037 26.4531 120.027 23.7188C120.037 20.9941 119.432 19.6367 118.406 19.6367C117.41 19.6367 116.824 20.9941 116.844 23.7188ZM147.938 29.6758V31.7266H131.668V29.6758H135.301V25.3203C133.924 24.4902 133.094 23.2305 133.094 21.668C133.094 18.7871 135.906 16.8926 139.773 16.8828C143.621 16.8926 146.463 18.7871 146.473 21.668C146.463 23.2012 145.662 24.4414 144.324 25.2715V29.6758H147.938ZM135.555 21.668C135.555 23.4062 137.225 24.4805 139.773 24.4805C142.283 24.4805 144.002 23.4062 144.012 21.668C144.002 19.8809 142.283 18.8457 139.773 18.8555C137.225 18.8457 135.555 19.8809 135.555 21.668ZM137.762 29.6758H141.805V26.2188C141.17 26.3457 140.486 26.4141 139.773 26.4141C139.061 26.4141 138.387 26.3457 137.762 26.2285V29.6758Z" fill="#F2F6FF"/>
<g clip-path="url(#clip0_652_6794)">
<path d="M40.5021 28.9018L35.6021 24.0018L33.9688 25.6352L40.5021 32.1685L54.5021 18.1685L52.8687 16.5352L40.5021 28.9018Z" fill="#F2F6FF"/>
</g>
<defs>
<clipPath id="clip0_652_6794">
<rect width="28" height="28" fill="white" transform="translate(30 10)"/>
</clipPath>
</defs>
</svg>
