<svg width="179" height="50" viewBox="0 0 179 50" fill="none" xmlns="http://www.w3.org/2000/svg">
<rect width="179" height="50" rx="25" fill="#FF003A"/>
<path d="M67.3516 17.5664C69.9102 17.5762 71.7266 19.9297 71.7461 23.6211C71.7266 27.3223 69.9102 29.666 67.3516 29.6562C64.7734 29.666 62.9668 27.3223 62.9766 23.6211C62.9668 19.9297 64.7734 17.5762 67.3516 17.5664ZM64.4219 23.6211C64.4316 26.4434 65.6328 28.2988 67.3516 28.2891C69.0898 28.2988 70.2617 26.4434 70.2617 23.6211C70.2617 20.7988 69.0898 18.9434 67.3516 18.9336C65.6328 18.9434 64.4316 20.7988 64.4219 23.6211ZM74.6172 33.582V16.2188H76.1406V23.1523H79.0508V24.4805H76.1406V33.582H74.6172ZM86.2383 19.4414C86.248 21.7754 88.0938 23.9043 90.6914 24.7539L89.9102 25.9453C87.8887 25.2617 86.2871 23.8359 85.4961 22C84.7344 23.9727 83.1133 25.5352 81.043 26.2773L80.2422 25.0859C82.8496 24.168 84.6855 21.9023 84.6953 19.4414V18.6992H80.6328V17.4492H90.2422V18.6992H86.2383V19.4414ZM82.6445 28.9141V27.6445H94.3242V33.582H92.8008V28.9141H82.6445ZM92.8008 26.7266V16.2188H94.3242V26.7266H92.8008ZM111.59 16.2188V33.6211H110.047V16.2188H111.59ZM97.918 23.6211C97.9277 19.9297 99.7637 17.5762 102.352 17.5664C104.93 17.5762 106.795 19.9297 106.785 23.6211C106.795 27.3223 104.93 29.666 102.352 29.6562C99.7637 29.666 97.9277 27.3223 97.918 23.6211ZM99.4023 23.6211C99.4023 26.4434 100.613 28.2988 102.352 28.2891C104.1 28.2988 105.301 26.4434 105.301 23.6211C105.301 20.7988 104.1 18.9434 102.352 18.9336C100.613 18.9434 99.4023 20.7988 99.4023 23.6211ZM129.441 16.2188V33.582H127.957V16.2188H129.441ZM114.773 23.7188C114.783 20.0273 116.248 17.6934 118.504 17.6836C120.613 17.6934 122.039 19.7246 122.234 22.9961H124.48V16.5898H125.945V32.7031H124.48V24.2656H122.244C122.098 27.6445 120.643 29.7637 118.504 29.7539C116.248 29.7637 114.783 27.4102 114.773 23.7188ZM116.219 23.7188C116.199 26.5312 117.098 28.3086 118.504 28.2891C119.92 28.3086 120.818 26.5312 120.809 23.7188C120.818 20.8965 119.92 19.1289 118.504 19.1289C117.098 19.1289 116.199 20.8965 116.219 23.7188ZM147.742 30.0664V31.3555H131.844V30.0664H135.789V25.3887C134.305 24.6172 133.406 23.3672 133.406 21.7852C133.406 19.0996 136.043 17.332 139.754 17.3125C143.465 17.332 146.102 19.0996 146.102 21.7852C146.102 23.3379 145.232 24.5684 143.797 25.3398V30.0664H147.742ZM134.891 21.7852C134.881 23.7285 136.902 25.0273 139.754 25.0273C142.576 25.0273 144.617 23.7285 144.617 21.7852C144.617 19.8418 142.576 18.5625 139.754 18.582C136.902 18.5625 134.881 19.8418 134.891 21.7852ZM137.293 30.0664H142.254V25.9355C141.502 26.1309 140.662 26.2383 139.754 26.2383C138.865 26.2383 138.035 26.1406 137.293 25.9453V30.0664Z" fill="#F2F6FF"/>
<g clip-path="url(#clip0_841_9022)">
<path d="M40.5001 28.9018L35.6001 24.0018L33.9668 25.6352L40.5001 32.1685L54.5001 18.1685L52.8668 16.5352L40.5001 28.9018Z" fill="#F2F6FF"/>
</g>
<defs>
<clipPath id="clip0_841_9022">
<rect width="28" height="28" fill="white" transform="translate(30 10)"/>
</clipPath>
</defs>
</svg>
