<svg width="179" height="50" viewBox="0 0 179 50" fill="none" xmlns="http://www.w3.org/2000/svg">
<rect width="179" height="50" rx="25" fill="#FF003A"/>
<path d="M78.7773 24.6758V26.668H72.0391V29.7539H69.5195V26.668H62.5078V24.6758H78.7773ZM64.1875 20.0469C64.1875 17.791 66.7656 16.375 70.6328 16.3555C74.4805 16.375 77.0488 17.791 77.0586 20.0469C77.0488 22.3125 74.4805 23.7188 70.6328 23.7188C66.7656 23.7188 64.1875 22.3125 64.1875 20.0469ZM64.4414 33.4844V28.1719H66.9609V31.4727H76.9805V33.4844H64.4414ZM66.8828 20.0469C66.873 21.1309 68.3379 21.7168 70.6328 21.7266C72.9277 21.7168 74.3828 21.1309 74.3828 20.0469C74.3828 18.9141 72.9277 18.3281 70.6328 18.3281C68.3379 18.3281 66.873 18.9141 66.8828 20.0469ZM96.0625 24.4219V26.375H79.8125V24.4219H86.7266V22.8984H81.7852V16.8047H94.1094V18.7383H84.2656V20.9453H94.207V22.8984H89.168V24.4219H96.0625ZM81.668 30.5547C81.668 28.4453 84.0117 27.2734 87.8984 27.2734C91.7559 27.2734 94.0703 28.4453 94.0898 30.5547C94.0703 32.6348 91.7559 33.8164 87.8984 33.8164C84.0117 33.8164 81.668 32.6348 81.668 30.5547ZM84.207 30.5547C84.1973 31.4824 85.4375 31.9219 87.8984 31.9219C90.3105 31.9219 91.5801 31.4824 91.5898 30.5547C91.5801 29.6367 90.3105 29.168 87.8984 29.168C85.4375 29.168 84.1973 29.6367 84.207 30.5547ZM112.371 16.043V26.9805H110.008V22.6055H108.621V26.7852H106.297V16.2773H108.621V20.5938H110.008V16.043H112.371ZM97 19.6953V17.7227H100.145V16.1211H102.625V17.7227H105.73V19.6953H97ZM97.5469 23.3672C97.5371 21.502 99.168 20.2617 101.395 20.2617C103.65 20.2617 105.271 21.502 105.281 23.3672C105.271 25.1934 103.65 26.4629 101.395 26.4727C99.168 26.4629 97.5371 25.1934 97.5469 23.3672ZM98.0938 31.7266C100.398 31.0625 101.434 29.4609 101.434 27.8984V27.5273H103.914V27.8984C103.895 29.1973 104.48 30.5352 105.877 31.4238C107.293 30.4863 107.918 29.0898 107.938 27.8984V27.5273H110.418V27.8984C110.398 29.5488 111.395 31.1309 113.758 31.7266L112.605 33.582C110.887 33.0547 109.754 32.0195 109.129 30.7109C108.562 32.0195 107.537 33.1719 105.926 33.7578C104.275 33.1816 103.23 32.0977 102.654 30.7988C102.02 32.0488 100.896 33.0547 99.2656 33.582L98.0938 31.7266ZM99.7734 23.3672C99.7637 24.1973 100.418 24.6758 101.395 24.6758C102.361 24.6758 103.025 24.1973 103.035 23.3672C103.025 22.498 102.361 22.0391 101.395 22.0391C100.428 22.0391 99.7637 22.498 99.7734 23.3672ZM119.285 17.2734C121.688 17.2734 123.484 19.2461 123.836 22.4492H126.922V16.0234H129.383V33.8359H126.922V24.4414H123.865C123.602 27.8594 121.766 29.9492 119.285 29.9492C116.59 29.9492 114.656 27.5078 114.676 23.6016C114.656 19.7246 116.59 17.2734 119.285 17.2734ZM117.059 23.6016C117.049 26.248 117.957 27.6934 119.285 27.6836C120.623 27.6934 121.512 26.248 121.512 23.6016C121.512 20.9648 120.623 19.5195 119.285 19.5195C117.957 19.5195 117.049 20.9648 117.059 23.6016ZM147.938 29.6758V31.7266H131.668V29.6758H135.301V25.3203C133.924 24.4902 133.094 23.2305 133.094 21.668C133.094 18.7871 135.906 16.8926 139.773 16.8828C143.621 16.8926 146.463 18.7871 146.473 21.668C146.463 23.2012 145.662 24.4414 144.324 25.2715V29.6758H147.938ZM135.555 21.668C135.555 23.4062 137.225 24.4805 139.773 24.4805C142.283 24.4805 144.002 23.4062 144.012 21.668C144.002 19.8809 142.283 18.8457 139.773 18.8555C137.225 18.8457 135.555 19.8809 135.555 21.668ZM137.762 29.6758H141.805V26.2188C141.17 26.3457 140.486 26.4141 139.773 26.4141C139.061 26.4141 138.387 26.3457 137.762 26.2285V29.6758Z" fill="#F2F6FF"/>
<g clip-path="url(#clip0_841_8214)">
<path d="M40.5001 28.9018L35.6001 24.0018L33.9668 25.6352L40.5001 32.1685L54.5001 18.1685L52.8668 16.5352L40.5001 28.9018Z" fill="#F2F6FF"/>
</g>
<defs>
<clipPath id="clip0_841_8214">
<rect width="28" height="28" fill="white" transform="translate(30 10)"/>
</clipPath>
</defs>
</svg>
