<svg width="179" height="50" viewBox="0 0 179 50" fill="none" xmlns="http://www.w3.org/2000/svg">
<rect width="179" height="50" rx="25" fill="#FF003A"/>
<path d="M61.8672 18.0938V20.0273H59.1328C59.1328 21.8047 60.1484 23.543 62.3945 24.3047L61.2812 26.1406C59.709 25.6133 58.6445 24.6172 58.0098 23.3574C57.3945 24.7734 56.3203 25.9258 54.6992 26.5508L53.5078 24.7344C55.7734 23.8457 56.75 21.9316 56.7695 20.0273H54.0156V18.0938H56.7695V16.3359H59.1328V18.0938H61.8672ZM56.5742 30.5156C56.5645 28.4062 58.9375 27.1562 62.7266 27.1562C66.4961 27.1562 68.8789 28.4062 68.8984 30.5156C68.8789 32.5762 66.4961 33.8066 62.7266 33.7969C58.9375 33.8066 56.5645 32.5762 56.5742 30.5156ZM59.0742 30.5156C59.0547 31.4336 60.3926 31.9023 62.7266 31.9023C65.041 31.9023 66.3789 31.4336 66.3789 30.5156C66.3789 29.5488 65.041 29.0508 62.7266 29.0508C60.3926 29.0508 59.0547 29.5488 59.0742 30.5156ZM62.668 26.4336V16.3555H65.0117V20.3594H66.4375V16.043H68.8008V27H66.4375V22.3516H65.0117V26.4336H62.668ZM79.9141 17.8789C79.9141 18.8066 79.8555 19.7148 79.7188 20.5938H83.3125V16.0039H85.793V33.7969H83.3125V27.4102H79.0156V25.418H83.3125V22.5664H79.2793C78.3027 25.8574 76.0762 28.6699 71.9062 30.7305L70.6172 28.7578C74.875 26.5898 76.9648 23.7676 77.375 19.832H71.4766V17.8789H79.9141ZM103.078 27.3516V33.8164H100.598V29.3242H90.8711V27.3516H103.078ZM88.8398 25.5742V17.293H97.2773V20.2812H100.598V16.0234H103.078V26.5312H100.598V22.2734H97.2773V25.5742H88.8398ZM91.3203 23.6016H94.8359V19.3047H91.3203V23.6016ZM112.082 27.3711C112.072 28.8262 112.668 30.3203 114.123 31.3262C115.588 30.252 116.184 28.6895 116.203 27.3711V26.6484H118.645V27.3711C118.654 29.2266 119.621 30.9844 122.043 31.7266L120.773 33.5625C119.084 32.9766 117.99 31.873 117.375 30.4961C116.789 31.8633 115.744 33.0742 114.133 33.7188C112.502 33.1133 111.457 31.9512 110.871 30.5645C110.236 31.8926 109.143 32.9668 107.531 33.5625L106.32 31.7266C108.664 30.9453 109.65 29.1387 109.66 27.3711V26.6484H112.082V27.3711ZM105.598 21.1797C105.598 18.7285 107.629 16.9219 110.344 16.9414C112.59 16.9219 114.416 18.2305 114.904 20.1445H117.883V16.0234H120.363V25.9844H117.883V22.1758H114.914C114.445 24.1387 112.609 25.4668 110.344 25.457C107.629 25.4668 105.598 23.6797 105.598 21.1797ZM108 21.1797C107.98 22.5371 108.977 23.3965 110.344 23.3867C111.672 23.3965 112.658 22.5371 112.668 21.1797C112.658 19.8223 111.672 19.002 110.344 19.0117C108.977 19.002 107.98 19.8223 108 21.1797ZM127.57 17.2734C129.973 17.2734 131.77 19.2461 132.121 22.4492H135.207V16.0234H137.668V33.8359H135.207V24.4414H132.15C131.887 27.8594 130.051 29.9492 127.57 29.9492C124.875 29.9492 122.941 27.5078 122.961 23.6016C122.941 19.7246 124.875 17.2734 127.57 17.2734ZM125.344 23.6016C125.334 26.248 126.242 27.6934 127.57 27.6836C128.908 27.6934 129.797 26.248 129.797 23.6016C129.797 20.9648 128.908 19.5195 127.57 19.5195C126.242 19.5195 125.334 20.9648 125.344 23.6016ZM156.223 29.6758V31.7266H139.953V29.6758H143.586V25.3203C142.209 24.4902 141.379 23.2305 141.379 21.668C141.379 18.7871 144.191 16.8926 148.059 16.8828C151.906 16.8926 154.748 18.7871 154.758 21.668C154.748 23.2012 153.947 24.4414 152.609 25.2715V29.6758H156.223ZM143.84 21.668C143.84 23.4062 145.51 24.4805 148.059 24.4805C150.568 24.4805 152.287 23.4062 152.297 21.668C152.287 19.8809 150.568 18.8457 148.059 18.8555C145.51 18.8457 143.84 19.8809 143.84 21.668ZM146.047 29.6758H150.09V26.2188C149.455 26.3457 148.771 26.4141 148.059 26.4141C147.346 26.4141 146.672 26.3457 146.047 26.2285V29.6758Z" fill="#F2F6FF"/>
<g clip-path="url(#clip0_640_8790)">
<path d="M31.5001 28.9018L26.6001 24.0018L24.9668 25.6352L31.5001 32.1685L45.5001 18.1685L43.8668 16.5352L31.5001 28.9018Z" fill="#F2F6FF"/>
</g>
<defs>
<clipPath id="clip0_640_8790">
<rect width="28" height="28" fill="white" transform="translate(21 10)"/>
</clipPath>
</defs>
</svg>
