<svg width="21" height="14" viewBox="0 0 21 14" fill="none" xmlns="http://www.w3.org/2000/svg">
<g id="Group 2026">
<path id="Vector" d="M10.167 2.69036C13.6124 2.69036 16.6852 4.53636 18.1852 7.45703C16.6852 10.3777 13.6124 12.2237 10.167 12.2237C6.72154 12.2237 3.64881 10.3777 2.14881 7.45703C3.64881 4.53636 6.72154 2.69036 10.167 2.69036ZM10.167 0.957031C5.62154 0.957031 1.73972 3.65236 0.166992 7.45703C1.73972 11.2617 5.62154 13.957 10.167 13.957C14.7124 13.957 18.5943 11.2617 20.167 7.45703C18.5943 3.65236 14.7124 0.957031 10.167 0.957031ZM10.167 5.29036C11.4215 5.29036 12.4397 6.26103 12.4397 7.45703C12.4397 8.65303 11.4215 9.6237 10.167 9.6237C8.91245 9.6237 7.89427 8.65303 7.89427 7.45703C7.89427 6.26103 8.91245 5.29036 10.167 5.29036ZM10.167 3.55703C7.91245 3.55703 6.07608 5.3077 6.07608 7.45703C6.07608 9.60636 7.91245 11.357 10.167 11.357C12.4215 11.357 14.2579 9.60636 14.2579 7.45703C14.2579 5.3077 12.4215 3.55703 10.167 3.55703Z" fill="#08044E"/>
</g>
</svg>
