<svg width="84" height="80" viewBox="0 0 84 80" fill="none" xmlns="http://www.w3.org/2000/svg">
<g id="Group 2301">
<rect id="Rectangle 1271" width="84" height="80" rx="10" fill="#F2F6FF"/>
<g id="Group">
<g id="Group_2">
<path id="Vector" d="M59 28H51V24C51 21.8 49.2 20 47 20H39C36.8 20 35 21.8 35 24V28H27C24.8 28 23 29.8 23 32V56C23 58.2 24.8 60 27 60H59C61.2 60 63 58.2 63 56V32C63 29.8 61.2 28 59 28ZM39 24H47V28H39V24ZM59 56H27V32H59V56Z" fill="#17181A"/>
<path id="Vector_2" d="M45 36H41V42H35V46H41V52H45V46H51V42H45V36Z" fill="#17181A"/>
</g>
</g>
</g>
</svg>
