<svg width="38" height="40" viewBox="0 0 38 40" fill="none" xmlns="http://www.w3.org/2000/svg">
<path id="Vector" d="M15.8921 1.11554C17.6559 -0.371849 20.235 -0.371849 21.9988 1.11556L36.2079 13.0977C37.2749 13.9977 37.8909 15.3225 37.8909 16.7185V36.3162C37.8909 38.3507 36.2416 40 34.207 40H26.8394C24.8048 40 23.1555 38.3507 23.1555 36.3162V25.776C23.1555 25.4855 22.92 25.2497 22.6293 25.2497H15.2616C14.9709 25.2497 14.7353 25.4855 14.7353 25.776V36.3162C14.7353 38.3507 13.086 40 11.0515 40H3.68383C1.64931 40 0 38.3507 0 36.3162V16.7185C0 15.3225 0.615832 13.9977 1.68303 13.0977L15.8921 1.11554ZM19.9632 3.52942C19.3753 3.03361 18.5156 3.03361 17.9276 3.52942L3.71859 15.5116C3.36286 15.8116 3.15757 16.2532 3.15757 16.7185V36.3162C3.15757 36.6069 3.39319 36.8424 3.68383 36.8424H11.0515C11.3421 36.8424 11.5777 36.6069 11.5777 36.3162V25.776C11.5777 23.7415 13.2271 22.0921 15.2616 22.0921H22.6293C24.6638 22.0921 26.3131 23.7415 26.3131 25.776V36.3162C26.3131 36.6069 26.5487 36.8424 26.8394 36.8424H34.207C34.4977 36.8424 34.7333 36.6069 34.7333 36.3162V16.7185C34.7333 16.2532 34.528 15.8116 34.1723 15.5116L19.9632 3.52942Z" fill="#FF003A"/>
</svg>
