<svg width="70" height="70" viewBox="0 0 70 70" fill="none" xmlns="http://www.w3.org/2000/svg">
<g id="Group 2158">
<circle id="Ellipse 134" cx="35" cy="35" r="35" fill="#17181A"/>
<path id="Vector" d="M25.7143 54.2609H29.4286V58H25.7143V54.2609ZM35 37.4348C38.0829 37.4348 40.5714 34.9296 40.5714 31.8261V20.6087C40.5714 17.5052 38.0829 15 35 15C31.9171 15 29.4286 17.5052 29.4286 20.6087V31.8261C29.4286 34.9296 31.9171 37.4348 35 37.4348ZM33.1429 20.6087C33.1429 19.5804 33.9786 18.7391 35 18.7391C36.0214 18.7391 36.8571 19.5804 36.8571 20.6087V31.8261C36.8571 32.873 36.04 33.6957 35 33.6957C33.9786 33.6957 33.1429 32.8543 33.1429 31.8261V20.6087ZM33.1429 54.2609H36.8571V58H33.1429V54.2609ZM40.5714 54.2609H44.2857V58H40.5714V54.2609ZM48 31.8261H44.8429C44.8429 37.4348 40.1257 41.3609 35 41.3609C29.8743 41.3609 25.1571 37.4348 25.1571 31.8261H22C22 38.2013 27.0514 43.4735 33.1429 44.3896V50.5217H36.8571V44.3896C42.9486 43.4735 48 38.2013 48 31.8261Z" fill="#F2F6FF"/>
</g>
</svg>
