<svg width="100" height="100" viewBox="0 0 100 100" fill="none" xmlns="http://www.w3.org/2000/svg">
<g id="Group 2244">
<rect id="Rectangle 1260" x="1.5" y="1.5" width="97" height="97" rx="18.5" fill="#F2F6FF" stroke="#FF003A" stroke-width="3"/>
<g id="Group 2235">
<path id="Union" fill-rule="evenodd" clip-rule="evenodd" d="M52.1242 16.6804C51.1868 15.7732 49.667 15.7732 48.7297 16.6803L29.494 35.2955C28.5567 36.2026 28.5567 37.6734 29.494 38.5805C30.5914 39.6425 32.3338 39.6002 33.5055 38.6207C38.0977 34.7814 44.0821 32.4593 50.627 32.4593C57.1747 32.4593 63.1615 34.7835 67.7546 38.6258C68.808 39.507 70.3729 39.5356 71.3598 38.5805C72.2972 37.6734 72.2972 36.2026 71.3598 35.2955L52.1242 16.6804ZM26 58.5761C26 45.0851 36.9366 34.1484 50.4276 34.1484C63.9187 34.1484 74.8553 45.0851 74.8553 58.5761C74.8553 72.0671 63.9187 83.0037 50.4276 83.0037C36.9366 83.0037 26 72.0671 26 58.5761Z" fill="url(#paint0_linear_841_8141)"/>
<g id="Group 2138">
<path id="Ellipse 129 (Stroke)" fill-rule="evenodd" clip-rule="evenodd" d="M52.5618 62.6148C53.0144 62.4273 53.4417 62.1862 53.8346 61.8972C54.2429 61.5969 54.8207 61.5902 55.1791 61.9487C55.5376 62.3071 55.5405 62.8931 55.1429 63.2076C54.5718 63.6594 53.9398 64.031 53.2643 64.3108C52.3054 64.7079 51.2778 64.9123 50.24 64.9123C49.2022 64.9123 48.1745 64.7079 47.2157 64.3108C46.5402 64.031 45.9082 63.6594 45.337 63.2076C44.9395 62.8931 44.9424 62.3071 45.3008 61.9487C45.6593 61.5902 46.237 61.5969 46.6454 61.8972C47.0383 62.1862 47.4655 62.4273 47.9182 62.6148C48.6543 62.9198 49.4432 63.0767 50.24 63.0767C51.0367 63.0767 51.8257 62.9198 52.5618 62.6148Z" fill="#546C00"/>
<g id="Group 2134">
<circle id="Ellipse 131" cx="43.9856" cy="55.0989" r="1.92307" fill="#546C00"/>
<circle id="Ellipse 132" cx="57.011" cy="55.0989" r="1.92307" fill="#546C00"/>
</g>
</g>
</g>
</g>
<defs>
<linearGradient id="paint0_linear_841_8141" x1="40.6853" y1="28.8502" x2="60.4201" y2="81.1681" gradientUnits="userSpaceOnUse">
<stop stop-color="#E8F276"/>
<stop offset="1" stop-color="#B1CE57"/>
</linearGradient>
</defs>
</svg>
