<svg width="40" height="40" viewBox="0 0 40 40" fill="none" xmlns="http://www.w3.org/2000/svg">
<path id="Vector" d="M29.5 0C33.0898 0 36 2.91014 36 6.5V20.1C35.2612 20.25 34.5814 20.563 34 20.9996C34 19.874 33.6278 18.8352 33 17.9996V11H3V29.5C3 31.433 4.567 33 6.5 33H16V36H6.5C2.91014 36 0 33.0898 0 29.5V6.5C0 2.91014 2.91014 0 6.5 0H29.5ZM29.5 3H6.5C4.567 3 3 4.567 3 6.5V8H33V6.5C33 4.567 31.433 3 29.5 3ZM29 18C27.3432 18 26 19.3432 26 21V37C26 38.6568 27.3432 40 29 40C30.6568 40 32 38.6568 32 37V21C32 19.3432 30.6568 18 29 18ZM21 26C19.3432 26 18 27.3432 18 29V37C18 38.6568 19.3432 40 21 40C22.6568 40 24 38.6568 24 37V29C24 27.3432 22.6568 26 21 26ZM34 25C34 23.3432 35.3432 22 37 22C38.6568 22 40 23.3432 40 25V37C40 38.6568 38.6568 40 37 40C35.3432 40 34 38.6568 34 37V25Z" fill="#FF003A"/>
</svg>
