<svg width="84" height="80" viewBox="0 0 84 80" fill="none" xmlns="http://www.w3.org/2000/svg">
<g id="Group 2302">
<rect id="Rectangle 1272" width="84" height="80" rx="10" fill="#F2F6FF"/>
<g id="Group">
<path id="Vector" d="M37.6972 24.0816C34.3573 39.5312 45.381 49.51 53.3927 52.3581C50.5446 54.5916 46.9998 55.8619 43.291 55.8619C34.2548 55.8619 26.8988 48.506 26.8988 39.4698C26.8988 32.4006 31.4067 26.356 37.6972 24.0816ZM43.2705 19C31.8165 19 22.8008 28.2821 22.8008 39.4698C22.8008 50.7804 31.9804 59.96 43.291 59.96C50.8929 59.96 57.4908 55.821 61.0356 49.6739C45.6474 49.1616 36.2629 32.4006 43.9877 19C43.7418 19 43.5164 19 43.2705 19Z" fill="#17181A"/>
</g>
</g>
</svg>
