<svg width="20" height="20" viewBox="0 0 20 20" fill="none" xmlns="http://www.w3.org/2000/svg">
<g id="Visibility off" clip-path="url(#clip0_118_3101)">
<g id="Group 2026">
<path id="Vector" d="M9.99967 4.9974C13.158 4.9974 15.9747 6.7724 17.3497 9.58073C16.858 10.5974 16.1663 11.4724 15.3413 12.1807L16.5163 13.3557C17.6747 12.3307 18.5913 11.0474 19.1663 9.58073C17.7247 5.9224 14.1663 3.33073 9.99967 3.33073C8.94134 3.33073 7.92467 3.4974 6.96634 3.80573L8.34134 5.18073C8.88301 5.0724 9.43301 4.9974 9.99967 4.9974ZM9.10801 5.9474L10.833 7.6724C11.308 7.88073 11.6913 8.26406 11.8997 8.73906L13.6247 10.4641C13.6913 10.1807 13.7413 9.88073 13.7413 9.5724C13.7497 7.50573 12.0663 5.83073 9.99967 5.83073C9.69134 5.83073 9.39968 5.8724 9.10801 5.9474ZM1.67467 3.2224L3.90801 5.45573C2.54967 6.5224 1.47467 7.93906 0.833008 9.58073C2.27467 13.2391 5.83301 15.8307 9.99967 15.8307C11.2663 15.8307 12.483 15.5891 13.5997 15.1474L16.4497 17.9974L17.6247 16.8224L2.84967 2.03906L1.67467 3.2224ZM7.92467 9.4724L10.0997 11.6474C10.0663 11.6557 10.033 11.6641 9.99967 11.6641C8.84968 11.6641 7.91634 10.7307 7.91634 9.58073C7.91634 9.53906 7.92467 9.51406 7.92467 9.4724ZM5.09134 6.63906L6.54967 8.0974C6.35801 8.55573 6.24967 9.05573 6.24967 9.58073C6.24967 11.6474 7.93301 13.3307 9.99967 13.3307C10.5247 13.3307 11.0247 13.2224 11.4747 13.0307L12.2913 13.8474C11.558 14.0474 10.7913 14.1641 9.99967 14.1641C6.84134 14.1641 4.02467 12.3891 2.64967 9.58073C3.23301 8.38906 4.08301 7.40573 5.09134 6.63906Z" fill="#959AA4"/>
</g>
</g>
<defs>
<clipPath id="clip0_118_3101">
<rect width="20" height="20" fill="white"/>
</clipPath>
</defs>
</svg>
