<svg width="84" height="80" viewBox="0 0 84 80" fill="none" xmlns="http://www.w3.org/2000/svg">
<g id="Group 2303">
<rect id="Rectangle 1273" width="84" height="80" rx="10" fill="#F2F6FF"/>
<path id="Vector" d="M48.7273 22H31.5455C29.9609 22 28.6055 22.95 28.0327 24.318L22.2673 37.713C22.0955 38.15 22 38.606 22 39.1V42.9C22 44.99 23.7182 46.7 25.8182 46.7H37.8645L36.0509 55.383L35.9936 55.991C35.9936 56.77 36.3182 57.492 36.8336 58.005L38.8573 60L51.4382 47.479C52.1255 46.795 52.5455 45.845 52.5455 44.8V25.8C52.5455 23.71 50.8273 22 48.7273 22ZM48.7273 44.8L40.4418 53.046L43 42.9H25.8182V39.1L31.5455 25.8H48.7273V44.8ZM56.3636 22H64V44.8H56.3636V22Z" fill="#17181A"/>
</g>
</svg>
