<svg width="84" height="80" viewBox="0 0 84 80" fill="none" xmlns="http://www.w3.org/2000/svg">
<g id="Group 2305">
<rect id="Rectangle 1275" width="84" height="80" rx="10" fill="#F2F6FF"/>
<g id="Group 2299">
<g id="Group">
<path id="Vector" d="M44.9921 22.2017C54.2568 22.2017 61.7988 29.7437 61.7988 39.0084C61.7988 48.2731 54.2568 55.8151 44.9921 55.8151C42.5131 55.8151 40.0761 55.2689 37.7862 54.1765C37.2189 53.9034 36.6097 53.7773 35.9795 53.7773C35.5803 53.7773 35.1811 53.8403 34.803 53.9454L28.0803 55.9202L30.0551 49.1975C30.3492 48.2101 30.2652 47.1387 29.824 46.2143C28.7316 43.9244 28.1853 41.4874 28.1853 39.0084C28.1853 29.7437 35.7274 22.2017 44.9921 22.2017ZM44.9921 18C33.3954 18 23.9837 27.4118 23.9837 39.0084C23.9837 42.2437 24.74 45.2689 26.0215 48.021L21.8828 62.1176L35.9795 57.979C38.7316 59.2605 41.7568 60.0168 44.9921 60.0168C56.5887 60.0168 66.0005 50.605 66.0005 39.0084C66.0005 27.4118 56.5887 18 44.9921 18Z" fill="#17181A"/>
</g>
<path id="Vector_2" fill-rule="evenodd" clip-rule="evenodd" d="M47.094 30.6055H42.8924V36.908H36.5898V41.1097H42.8924V47.4122H47.094V41.1097H53.3966V36.908H47.094V30.6055Z" fill="#17181A"/>
</g>
</g>
</svg>
